<?xml version="1.0" encoding="utf-8"?>
<!-- Generator: Adobe Illustrator 19.2.1, SVG Export Plug-In . SVG Version: 6.00 Build 0)  -->
<svg version="1.1" id="Layer_1" xmlns="http://www.w3.org/2000/svg" xmlns:xlink="http://www.w3.org/1999/xlink" x="0px" y="0px"
	 viewBox="0 0 841.9 595.3" enable-background="new 0 0 841.9 595.3" xml:space="preserve">
<g id="XMLID_1_">
	<g>
		<path fill="#4B6890" d="M609.1,104.1c47.5,47.4,76.8,113,76.8,185.4s-29.3,137.9-76.8,185.4c-47.4,47.4-113,76.8-185.4,76.8
			s-138-29.4-185.4-76.8c-47.4-47.5-76.8-113-76.8-185.4c0-144.8,117.4-262.2,262.2-262.2C496.1,27.3,561.7,56.6,609.1,104.1z
			 M179,280.8h489.4c-2.2-64.2-29.1-122-71.6-164.5c-2.4-2.4-4.9-4.8-7.4-7.1c-54.1,38.2-109.9,58.1-165.9,58.1l0,0h-0.1
			c-55.7,0-111.1-19.6-164.7-58.7c-2.8,2.5-5.5,5.1-8.1,7.8c-21.2,21.2-38.5,46.3-50.8,74.1C187.4,218.2,180.1,248.7,179,280.8z
			 M668.4,298.1H179c2.2,64.2,29.1,122,71.6,164.5c2.3,2.3,4.7,4.6,7.1,6.9c54.1-39.8,110-59.9,166.2-59.9c0,0,0,0,0.1,0l0,0
			c56.3,0,112.4,20.1,166.8,58.8c2-1.9,4-3.8,6-5.8c21.2-21.2,38.5-46.3,50.8-74.1C660,360.7,667.3,330.2,668.4,298.1z M577.4,480.1
			c-10.3-7.2-20.7-13.6-31-19.4c-10.4-5.7-20.7-10.7-31.1-15c-5.2,11.1-11.3,21.8-18,31.9s-13.8,19.5-20.9,28
			c-8.7,10.5-17.3,19.7-24.9,27.1c23.7-2.7,46.3-8.7,67.5-17.7C540.1,506.1,559.8,494.3,577.4,480.1z M545.1,116.6
			c10.2-5.6,20.5-12,30.7-19c-17.2-13.6-36.2-25-56.7-33.7s-42.3-14.6-65.2-17.4c3.5,3.5,7.1,7.4,10.9,11.6s7.7,8.7,11.6,13.5
			c13.8,17,27.9,37.6,38,59.7C524.6,127.1,534.8,122.2,545.1,116.6z M482.4,468.6c6.2-9.3,11.8-19,16.5-29
			c-11.1-3.7-22.1-6.7-33.2-8.8c-11.1-2.1-22.1-3.3-33.2-3.8v99.7c8.4-7.6,19.4-18.8,30.5-32.2C469.6,486.6,476.3,477.8,482.4,468.6
			z M498,137.4c-4.6-9.9-10.1-19.7-16.2-28.9c-6-9.2-12.5-18-19-25.9c-5.6-6.8-11.1-13.1-16.3-18.6c-5.2-5.5-10-10.2-14.1-14v99.8
			C454.4,148.8,476.2,144.7,498,137.4z M415.2,528.7V427.1c-22.3,0.9-44.5,5.1-66.8,12.9c4.6,9.9,10.2,19.6,16.2,28.8
			c6,9.2,12.5,17.9,18.9,25.9C395.2,509.1,406.8,521,415.2,528.7z M415.2,149.8V49.2c-8.3,7.4-19.5,18.8-30.9,32.5
			c-6.6,8-13.3,16.9-19.5,26.2c-6.2,9.4-11.8,19.2-16.4,29.2c11.1,3.8,22.3,6.8,33.4,8.9C393,148.1,404.1,149.4,415.2,149.8z
			 M394.1,532.5c-7.4-7.4-15.7-16.5-24.1-27c-6.9-8.5-13.8-17.8-20.2-27.8c-6.5-10-12.5-20.5-17.6-31.5
			c-10.2,4.3-20.4,9.4-30.5,15.2c-10.2,5.8-20.3,12.3-30.5,19.6c17.3,13.8,36.5,25.3,57.1,34C349,523.8,371.1,529.8,394.1,532.5z
			 M382.2,57.7c3.7-4,7.2-7.7,10.6-11.1c-22.6,2.8-44.2,8.8-64.4,17.3c-20.2,8.5-39.1,19.7-56.1,33.1c10,7.1,19.9,13.4,29.9,19.1
			c10,5.6,20,10.6,30,14.8c10.1-22.4,24.6-43.1,38.8-60.3C374.8,66,378.5,61.7,382.2,57.7z"/>
		<path fill="#4B6890" d="M549.8,372.1C549.8,372.2,549.8,372.2,549.8,372.1c0,5-1.5,9.7-4.2,14c-1.4,2.2-3.2,4.1-5.2,5.8
			c-2,1.7-4.3,3.1-6.9,4.3s-5.3,2-8.1,2.6s-5.8,0.9-8.9,0.9l0,0c-7.6,0-14.2-1.1-19.8-3.5c-2.8-1.2-5.2-2.7-7.4-4.5
			c-2.2-1.8-4.1-4-5.7-6.4s-2.8-5-3.6-7.7c-0.8-2.7-1.3-5.6-1.4-8.6l-0.1-3.1l16.5-1.4l0.4,3.2c0.4,3.7,1.4,6.5,2.8,8.5
			c0.7,1,1.5,1.9,2.6,2.8s2.5,1.6,4.1,2.4c3.2,1.4,6.9,2.1,11.1,2.1c3.8,0,7-0.6,9.6-1.6c1.4-0.5,2.5-1.1,3.4-1.8
			c0.9-0.6,1.6-1.3,2.1-2.1c1.2-1.6,1.7-3.2,1.7-5c0-1.9-0.5-3.3-1.5-4.6c-0.5-0.6-1.2-1.2-2.1-1.9c-1-0.6-2.2-1.3-3.8-1.8
			c-0.9-0.4-2.6-0.9-4.9-1.5c-2.4-0.6-5.4-1.4-9.1-2.3c-3.8-0.9-7-1.8-9.7-2.7c-2.7-0.9-4.9-1.8-6.7-2.7c-2.1-1.1-4.1-2.4-5.7-3.9
			c-1.7-1.5-3.1-3.1-4.2-4.9c-2.2-3.5-3.4-7.5-3.4-11.8c0,0,0,0,0-0.1l0,0c0-4.7,1.4-9.2,4-13.2c1.4-2.1,3-3.9,5-5.5
			s4.2-2.9,6.7-3.9c4.9-2,10.3-3,16-3h0.1c3.2,0,6.2,0.3,9.1,0.8c2.9,0.5,5.6,1.3,8.1,2.4s4.9,2.4,6.9,4.1c2,1.6,3.8,3.5,5.2,5.7
			c1.4,2.1,2.5,4.4,3.2,6.9c0.8,2.4,1.2,5,1.3,7.6l0.1,3.2l-16.7,1.3l-0.3-3.2c-0.5-4.5-2-7.4-4.4-9.4c-2.3-1.9-6.2-3.2-11.9-3.2
			c0,0,0,0-0.1,0s-0.2,0-0.2,0c-6,0-9.9,1.2-11.9,2.8c-1.2,1-2,1.9-2.5,2.9s-0.7,2-0.7,3.1c0,1,0.2,1.9,0.5,2.6s0.8,1.4,1.6,2.1
			c0.2,0.2,0.7,0.5,1.4,0.9c0.8,0.4,1.8,0.8,3,1.3c1.3,0.5,2.7,0.9,4.4,1.4c1.7,0.5,3.6,1,5.8,1.4c4.4,1,8.1,1.9,11.2,2.8
			c3.1,0.9,5.5,1.7,7.4,2.6c2.6,1.2,4.8,2.5,6.8,4.1s3.7,3.3,5,5.3C548.5,362.6,549.8,367.2,549.8,372.1L549.8,372.1z"/>
		<path fill="#4B6890" d="M549.8,241.7L549.8,241.7c0,5-1.5,9.7-4.2,14c-1.4,2.2-3.2,4.1-5.2,5.8s-4.3,3.1-6.9,4.3
			c-2.5,1.2-5.3,2-8.1,2.6s-5.8,0.9-8.9,0.9l0,0c-7.6,0-14.2-1.1-19.8-3.5c-2.8-1.2-5.2-2.7-7.4-4.5c-2.2-1.8-4.1-4-5.7-6.4
			c-1.6-2.4-2.8-5-3.6-7.7c-0.8-2.7-1.3-5.6-1.4-8.6l-0.1-3.1l16.5-1.4l0.4,3.2c0.4,3.7,1.4,6.5,2.8,8.5c0.7,1,1.5,1.9,2.6,2.8
			c1.1,0.9,2.5,1.6,4.1,2.4c3.2,1.4,6.9,2.1,11.1,2.1c3.8,0,7-0.6,9.6-1.6c1.4-0.5,2.5-1.1,3.4-1.8c0.9-0.6,1.6-1.3,2.1-2.1
			c1.2-1.6,1.7-3.2,1.7-5c0-1.9-0.5-3.3-1.5-4.6c-0.5-0.6-1.2-1.2-2.1-1.9c-1-0.6-2.2-1.3-3.8-1.9c-0.9-0.4-2.5-0.9-4.9-1.5
			c-2.3-0.6-5.4-1.4-9.1-2.3c-3.8-0.9-7-1.8-9.7-2.7s-4.9-1.8-6.7-2.7c-2.1-1.1-4.1-2.4-5.7-3.8c-1.7-1.4-3.1-3.1-4.2-4.9
			c-2.2-3.5-3.4-7.5-3.4-11.8c0,0,0,0,0-0.1c0,0,0,0,0-0.1c0-4.7,1.4-9.2,4-13.2c1.4-2.1,3-3.9,5-5.5s4.2-2.9,6.7-3.9s5-1.8,7.7-2.3
			s5.5-0.7,8.4-0.7c3.2,0,6.2,0.3,9.1,0.8c2.9,0.5,5.6,1.3,8.1,2.4c2.5,1.1,4.9,2.4,6.9,4.1c2,1.6,3.8,3.5,5.2,5.7
			c1.4,2.1,2.5,4.4,3.2,6.9c0.8,2.4,1.2,5,1.3,7.6l0.1,3.2l-16.7,1.3l-0.3-3.2c-0.5-4.5-2-7.4-4.4-9.4c-2.3-1.9-6.2-3.2-11.9-3.2
			c0,0,0,0-0.1,0c0,0-0.1,0-0.2,0c-6,0-10,1.2-11.9,2.8c-1.2,1-2,1.9-2.5,2.9s-0.7,2-0.7,3.1s0.2,1.9,0.5,2.6s0.8,1.4,1.6,2.1
			c0.2,0.2,0.7,0.5,1.4,0.9s1.8,0.8,3,1.3c1.3,0.4,2.7,0.9,4.4,1.4c1.7,0.5,3.6,1,5.8,1.4c4.4,1,8.1,1.9,11.2,2.8
			c3.1,0.9,5.5,1.7,7.4,2.6c2.6,1.2,4.8,2.5,6.8,4.1s3.7,3.3,5,5.3C548.5,232.2,549.8,236.8,549.8,241.7L549.8,241.7z"/>
		<rect x="415.2" y="309.3" fill="#4B6890" width="17.4" height="87.7"/>
		<rect x="415.2" y="181.6" fill="#4B6890" width="17.4" height="87.7"/>
		<path fill="#4B6890" d="M367.4,219.9v35l-1.3,1c-5.5,4.4-11.2,7.7-17.2,10c-3,1.1-6,2-9.1,2.5c-3.1,0.6-6.2,0.9-9.3,0.9
			c-4.2,0-8.3-0.5-12.1-1.4c-3.9-0.9-7.6-2.3-11.1-4.1c-7.1-3.7-12.5-9.2-16.1-16.2c-1.8-3.5-3.1-7.1-4-11s-1.3-7.9-1.3-12.1
			c0-4.2,0.4-8.2,1.3-12.2c0.9-3.9,2.2-7.7,4-11.4s4-7,6.6-9.8s5.6-5.1,9.1-6.9c6.7-3.6,14.4-5.4,22.9-5.4c0,0,0,0,0.1,0h0.1
			c6.2,0,11.9,1,17,3.1c2.6,1,4.9,2.3,7,3.8s3.9,3.2,5.5,5.2c1.5,1.9,2.8,4.1,4,6.5s2,5.1,2.8,8l0.8,3.2l-16,4.4l-0.9-3.1
			c-1.1-3.9-2.5-6.8-4-8.7c-0.7-0.9-1.6-1.8-2.6-2.5c-1-0.8-2.3-1.5-3.8-2.1c-2.9-1.2-6.1-1.9-9.9-1.9c-4.6,0-8.4,0.7-11.4,2
			c-3.2,1.3-5.6,3-7.5,5c-1.9,2.2-3.4,4.5-4.5,7.1c-0.9,2.3-1.7,4.7-2.1,7.2s-0.7,5.1-0.7,7.8c0,3.4,0.3,6.5,0.9,9.3
			s1.4,5.2,2.5,7.3s2.4,4,4,5.5c1.6,1.6,3.3,2.8,5.4,3.9c2.1,1.1,4.4,1.9,6.6,2.4c2.3,0.5,4.6,0.8,7,0.8c4.2,0,8.3-0.8,12.3-2.4
			c3.4-1.4,6.1-2.8,8-4.2v-10.2h-23.8V220L367.4,219.9z"/>
		<path fill="#4B6890" d="M366.6,370.1L366.6,370.1c0,2.2-0.2,4.3-0.7,6.3s-1.1,4-2.1,5.8c-1.8,3.6-4.1,6.6-6.9,8.7s-6.2,3.6-10,4.6
			c-3.9,1-8.5,1.5-13.9,1.5h-34.2v-87.6h33.7c6.5,0,11.9,0.8,16.2,2.7c2.1,0.9,4.1,2.2,5.8,3.7c1.7,1.5,3.2,3.2,4.4,5.2
			c2.4,3.8,3.7,8,3.7,12.4l0,0c0,0,0,0,0,0.1c0,4-1.1,8-3.3,11.5c-1.1,1.9-2.6,3.5-4.3,5c2.7,1.6,5.1,3.5,6.9,6
			C365,359.9,366.6,364.8,366.6,370.1z M347.6,375.4c0.8-1.4,1.2-3.1,1.2-5.2c0-2.5-0.6-4.3-1.7-6c-1.1-1.6-2.6-2.7-4.7-3.4
			c-2.1-0.7-5.8-1.2-10.7-1.2c-0.1,0-0.1,0-0.2,0h-15.4v21.2H333c3.4,0,5.7-0.2,6.7-0.3c2.2-0.4,3.8-1,5-1.8
			C345.8,378,346.8,377,347.6,375.4z M345.5,334.6c0-2.2-0.5-3.8-1.4-5.3c-0.9-1.4-2-2.2-3.7-2.8c-1.7-0.6-5.5-1-10.9-1
			c-0.1,0-0.3,0-0.4,0h-12.9v17.8h14.2c4.6,0,7.8-0.3,9.3-0.8c1.1-0.3,2-0.7,2.7-1.2s1.3-1,1.7-1.6
			C344.9,338.5,345.5,336.9,345.5,334.6z"/>
	</g>
</g>
</svg>
